<svg aria-hidden="true" style="position: absolute; width: 0; height: 0; overflow: hidden;" version="1.1" xmlns="http://www.w3.org/2000/svg" xmlns:xlink="http://www.w3.org/1999/xlink">
<defs>
<symbol id="icon-Facebook" viewBox="0 0 32 32">
<path d="M24 10.363h-5.904v-3.323c0-1.248 0.963-1.539 1.643-1.539h4.165v-5.483l-5.739-0.019c-6.368 0-7.816 4.091-7.816 6.707v3.653h-3.683v5.653h3.68v15.987h7.749v-15.989h5.227l0.677-5.648z"></path>
</symbol>
<symbol id="icon-Youtube" viewBox="0 0 32 32">
<path d="M28.501 5.973c1.379 0.349 2.461 1.387 2.829 2.701 0.669 2.384 0.669 7.36 0.669 7.36s0 4.973-0.667 7.357c-0.371 1.315-1.453 2.307-2.832 2.659-2.496 0.64-12.501 0.64-12.501 0.64s-10.005 0-12.501-0.64c-1.379-0.352-2.461-1.344-2.832-2.659-0.667-2.384-0.667-7.36-0.667-7.36s0-4.973 0.667-7.357c0.404-1.34 1.47-2.362 2.808-2.696l0.027-0.006c2.493-0.64 12.499-0.64 12.499-0.64s10.005 0 12.501 0.64zM12.728 11.517v9.032l8.363-4.517-8.363-4.512z"></path>
</symbol>
<symbol id="icon-Group-1716" viewBox="0 0 32 32">
<path d="M32 2c0 1.105-0.895 2-2 2s-2-0.895-2-2c0-1.105 0.895-2 2-2s2 0.895 2 2z"></path>
<path d="M16 30v0c-7.732 0-14-6.268-14-14s6.268-14 14-14v0c7.732 0 14 6.268 14 14s-6.268 14-14 14zM16 25.333c5.155 0 9.333-4.179 9.333-9.333s-4.179-9.333-9.333-9.333v0c-5.155 0-9.333 4.179-9.333 9.333s4.179 9.333 9.333 9.333v0z"></path>
</symbol>
<symbol id="icon-park-outline_bad-two" viewBox="0 0 32 32">
<path fill="none" stroke="#86e543" style="stroke: var(--color1, #86e543)" stroke-linejoin="round" stroke-linecap="round" stroke-miterlimit="4" stroke-width="2.6667" d="M2.787 17.889c-0.003 0.033-0.005 0.072-0.005 0.111 0 0.736 0.597 1.333 1.333 1.333 0 0 0.001 0 0.001 0h2.55c0.736 0 1.333-0.597 1.333-1.333v0-13.333c0-0.736-0.597-1.333-1.333-1.333v0h-1.44c-0.697 0-1.27 0.535-1.328 1.218l-0 0.005-1.111 13.333h-0.001zM12 17.75c0 0.557 0.347 1.056 0.85 1.293 1.099 0.519 2.972 1.561 3.817 2.969 1.089 1.816 1.293 5.097 1.327 5.848 0.005 0.105 0.003 0.211 0.017 0.315 0.18 1.302 2.693-0.219 3.657-1.827 0.523-0.872 0.59-2.018 0.535-2.913-0.060-0.957-0.34-1.882-0.615-2.801l-0.587-1.958h7.238c0.736-0 1.333-0.598 1.333-1.334 0-0.129-0.018-0.253-0.052-0.371l0.002 0.009-3.58-12.677c-0.163-0.565-0.676-0.971-1.283-0.971-0 0-0.001 0-0.001 0h-11.324c-0.736 0-1.333 0.597-1.333 1.333v0 13.083z"></path>
</symbol>
<symbol id="icon-park-outline_cool-two" viewBox="0 0 32 32">
<path stroke-linejoin="round" stroke-linecap="round" stroke-miterlimit="4" stroke-width="2.6667" d="M2.787 14.111c-0.003-0.033-0.005-0.072-0.005-0.111 0-0.736 0.597-1.333 1.333-1.333 0 0 0.001 0 0.001 0h2.55c0.736 0 1.333 0.597 1.333 1.333v0 13.333c0 0.736-0.597 1.333-1.333 1.333v0h-1.44c-0.697-0-1.27-0.535-1.328-1.218l-0-0.005-1.111-13.333h-0.001zM12 14.25c0-0.557 0.347-1.056 0.85-1.293 1.099-0.519 2.972-1.561 3.817-2.969 1.089-1.816 1.293-5.097 1.327-5.848 0.005-0.105 0.003-0.211 0.017-0.315 0.18-1.302 2.693 0.219 3.657 1.827 0.523 0.872 0.59 2.018 0.535 2.913-0.060 0.957-0.34 1.882-0.615 2.801l-0.587 1.958h7.238c0.736 0 1.333 0.598 1.333 1.334 0 0.129-0.018 0.253-0.052 0.371l0.002-0.009-3.58 12.677c-0.163 0.565-0.676 0.971-1.283 0.971-0 0-0.001 0-0.001 0h-11.324c-0.736 0-1.333-0.597-1.333-1.333v0-13.083z"></path>
</symbol>
<symbol id="icon-akar-icons_cross" viewBox="0 0 32 32">
<path fill="none" stroke="#86e543" style="stroke: var(--color1, #86e543)" stroke-linejoin="miter" stroke-linecap="round" stroke-miterlimit="4" stroke-width="3.5556" d="M29.629 30.222l-27.259-28.444M29.629 1.778l-27.259 28.444"/>
</symbol>
<symbol id="icon-eva_menu-outline" viewBox="0 0 48 32">
<path fill="#86e543" style="fill: var(--color1, #86e543)" d="M45.467 13.333h-42.933c-1.399 0-2.533 0.681-2.533 1.52v0.16c0 0.839 1.134 1.52 2.533 1.52h42.933c1.399 0 2.533-0.681 2.533-1.52v-0.16c0-0.839-1.134-1.52-2.533-1.52zM45.467 26.667h-42.933c-1.399 0-2.533 0.681-2.533 1.52v0.16c0 0.839 1.134 1.52 2.533 1.52h42.933c1.399 0 2.533-0.681 2.533-1.52v-0.16c0-0.839-1.134-1.52-2.533-1.52zM45.467 0h-42.933c-1.399 0-2.533 0.681-2.533 1.52v0.16c0 0.839 1.134 1.52 2.533 1.52h42.933c1.399 0 2.533-0.681 2.533-1.52v-0.16c0-0.839-1.134-1.52-2.533-1.52z"/>
</symbol>
<symbol id="icon-charm_circle-cross" viewBox="0 0 32 32">
<path fill="none" stroke="#86e543" style="stroke: var(--color1, #86e543)" stroke-linejoin="round" stroke-linecap="round" stroke-miterlimit="4" stroke-width="1.2" d="M20.5 11.5l-9 9M11.5 11.5l9 9M16 28.5c6.904 0 12.5-5.597 12.5-12.5s-5.597-12.5-12.5-12.5c-6.904 0-12.5 5.597-12.5 12.5s5.597 12.5 12.5 12.5z"/>
</symbol>
</svg>
